# xmcd
#
# Track frame offsets: 
#        150
#        15217
#        26870
#        40067
#        52830
#        66150
#        82252
#        95962
#        107840
#        120242
#        135682
#        146897
#        160015
#        174345
#        186490
#        200680
#
# Disc length: 2854 seconds
#
# Revision: 3
# Processed by: cddbd v1.5.2PL0 Copyright (c) Steve Scherf et al.
# Submitted via: ExactAudioCopyFreeDBPlugin 1.0
#
DISCID=e00b2410
DTITLE=Jimmy Rodgers - Train Whistle Blues
DYEAR=1986
DGENRE=Country
TTITLE0=Jimmy's Mean Mama Blues (1930)
TTITLE1=Southern Cannonball (1931)
TTITLE2=Jimmie The Kid (1931)
TTITLE3=Travelin' Blues (1931)
TTITLE4=Mystery Of No.5 (1930)
TTITLE5=Memphis Yodel (1928)
TTITLE6=Blue Yodel No 4 (California Blues) (1928)
TTITLE7=Hobo Bill's Last Ride (1929)
TTITLE8=Waiting For A Train (1928)
TTITLE9=Ben Dewberry's Final Run (1927)
TTITLE10=My Rough And Rowdy Ways (1929)
TTITLE11=Blue Yodel No7 (Anniversary Blue Yodel) (1929)
TTITLE12=Brakeman's Blues (Yodeling The Blues Away) (1928)
TTITLE13=Let Me Be Your Side Track (1931)
TTITLE14=Hobo's Medetation (1932)
TTITLE15=Train Whistle Blues (1929)
EXTD=
EXTT0=1930/07/10
EXTT1=1931/06/17
EXTT2=1931/01/31
EXTT3=1931/01/31
EXTT4=1930/07/11
EXTT5=1928/02/15
EXTT6=1928/10/20
EXTT7=1929/11/13
EXTT8=1928/10/22
EXTT9=1927/11/30
EXTT10=1929/10/22
EXTT11=1929/11/26
EXTT12=1928/02/14
EXTT13=1931/06/11
EXTT14=1932/02/03
EXTT15=1929/08/08
PLAYORDER=
